<svg width="16" height="16" xmlns="http://www.w3.org/2000/svg"><g fill="#FFF" fill-rule="nonzero"><path d="M8 11h-.2L0 7.7V15c0 .6.4 1 1 1h14c.6 0 1-.4 1-1V7.7L8.2 11H8z"/><path d="M15.8 4.9L14 3.8V1.1c0-.6-.5-1-1-1H3c-.5 0-1 .4-1 1v2.7L.2 4.9c-.1.1-.2.2-.2.4v1.3l3 1.3V1.1h10v6.8l3-1.3V5.3c0-.2-.1-.4-.2-.4z"/><path d="M10.4 5.7c.1-.2.1-.4 0-.5l-2-3c-.2-.3-.6-.3-.8 0l-2 3c-.1.2-.1.4 0 .5.1.2.3.3.4.3h.2l-.6 1.3c-.1.2-.1.3 0 .5.1.1.3.2.4.2h1.5v.5c0 .3.2.5.5.5s.5-.2.5-.5V8H10c.2 0 .3-.1.4-.2.1-.1.1-.3 0-.5L9.8 6h.2c.2 0 .3-.1.4-.3z"/></g></svg>