<svg height="1938" width="1833" xmlns="http://www.w3.org/2000/svg"><g fill="none"><path d="M598.098 1389.6c-.5 1.2-168.5-2.1-168.9-2.5-.333-.333-1.333-13.2-3-38.6l14.8-49.5c14.6-49.3 30.5-110.7 42.9-152.5 3.6-12.1 21.03-111.684 21.63-112.384.7-.6-60.837 28.649-62.237 28.649-2.2 0 7.2-73.206 0-68.406-14.8 9.9-95.593 101.396-123.893 115.696-14.5 7.2-72.2-.532-78.2 7.668-4.6 6.4 45.168-156.987 54.868-187.887 10.8-34.2 16.175-115.036 11.575-143.336-5-31.5-10.83-49.514-41.23-104.414-21.6-38.9-38.856-110.466-43.056-123.266-3.9-11.7 185.743 23.88 202.843 21.18 33.3-5.1 68.853-17.593 100.353-29.293 26.7-9.9 76.32-58.068 103.82-93.668 9.4-12.1 26.055-36.118 64.055-77.418 75.6-82-15.851-42.669-16.551-42.469-3.3.8 62.609-80.352 84.309-102.052 31.2-31.1 60.24-54.6 85.74-69.1 13.4-7.7 147.876-45.39 151.576-45.39 2.1 0 14.448 17.786 29.748 36.086 65.567 110.038 98.817 170.19 99.75 180.456 3.6 39.1-46.37-20.76-44.57-14.36 1.5 5.4 17.486 77.588 31.486 103.888 6.9 13.2 44.51 48.977 64.81 48.177 19.8-.8 126.099-61.657 170.899-114.757 25.6-30.4 56.879-61.683 57.479-61.483.8.3 3.893 16.378 4.193 47.178.6 56.3 8.027 58.993 32.027 58.693 18.5-.3 161.198-37.638 161.598-36.838.8 2.3-22.61 90.72-40.41 114.82-16.9 22.8-94.581 105.33-109.381 115.23-3.08 2.127-39.497 27.016-77.535 37.714-29.9 8.41-62.622 3.096-68.608 4.637-3.217.844-59.683-.512-107.054-21.854-42.456-19.127-65.941-50.263-66.934-48.61-2.8 4.5 17.3 40.946 21.5 78.446 6.7 58.8 58.513 81.33 78.113 121.43 20.5 41.8 153.934 120.983 155.034 127.783.5 3.4-109.747 9.894-108.347 14.094 1.4 4.3 73.986 134.331 78.786 143.431s113.028 117.911 116.428 124.211 37.66 50.045 40.56 55.545c2.835 5.376-71.16 58.88-101.172 67.573s-118.799 10.996-118.199 19.896c.9 15.6-8.77 40.004-10.17 45.404-1 4.1-44.633 25.03-59.033 27.33-7.285 1.232-51.71-15.13-78.833 10.724-18.083 17.236-79.62 78.47-184.614 183.698-135.144-106.366-207.483-157.45-217.016-153.25-15.5 6.9-69.26 9.38-72.16 9.38-.4 0-79.377-56.582-79.777-55.682z" fill="#090"/><path d="M746 1431c0-1.642 41-36 52-42 53.326 12.86 96.392 13.628 129.196 2.305C959.999 1379.98 982.6 1356.547 995 1321c108.448 50.01 162.782 75.343 163.003 76 .302.814-187.908 188.01-188.565 187.901C969.11 1584.901 746 1432.313 746 1431zm507-645c41.7 41.4 143.4 111.6 143 112-.5.5-104 9.3-104 10 0 .3 94 175 219 304 9.7 10.7 8.2 27.8 6 32-1.5 2.8-101.977 60.268-114 62-11.5 1.7-99.4 11.6-101 10-.7-.7-4.702-61.482-4.502-60.082 49.668-41.279 55.101-84.751 16.3-130.418-7.144-8.408-84.798-113.5-97.2-184.7s-12.598-99.8-34.6-154.3-40.998-84.5-50-155.5c-.14-1.112-7.732-64-4.998-64 2.777 0 85 178.3 126 219zm351-423.002c1.5.902-28.4 108.102-34 118.002-13.7 24.5-72.9 87.3-109 115-18.9 14.6-99 51-187 43-58.667-5.333-99.356-25.333-122.068-60 61.91 9.2 118.232 6 168.966-9.6 76.102-23.4 116.3-85 140.1-119.9 6.5-9.6 25-52.26 29.002-54.5s113.4-32.3 114-32.002zM1029 162c2.515-16.888 106.63 182.353 105.242 184.484-.694 1.066-21.85-5.06-51.805-23.28-8.02-4.83 7.835 43.101 47.563 143.796-33.264-24.226-55.255-45.715-65.973-64.468-16.076-28.13-39.885-207.915-35.027-240.532zM587 732c-2.2 4.6-107.746 217.402-127.746 239.102-16 17.3-73.459 85.149-77.559 88.449-8.7 7-74.575 63.233-128.695 59.449-2.8-.8 23.1-130.4 26-136 2.5-4.8 212-134 266.684-210S593.6 717.9 587 732z" fill="#060"/><g fill="#000"><path d="M959.998 1597.6c-1.6-.7-203.6-141.6-209.5-145.9-11.1-8-9.7-8-25.5-1.2-1.6.7-42 16.8-48.2 14.4-1-.333-20.933-19.567-59.8-57.7-123.332 1.2-188.132-.8-194.4-6-13.598-8.2-4.2-82.2 4.9-113.2 3.3-11.3 68.502-236 65.7-236.7-.2-.2-48.7 30.7-56.8 27.3s-12.5-12-11.4-22.5c.7-7.9 5.3-26.2 9.3-37 1-2.9-3.5 1.7-22.8 23.4-36.9 41.4-71.2 69.8-97 80.2-14.4 5.8-64.8 9.1-70.9 6-10.3-5.1-10.7-9.6-3.6-38.7.8-3 53.9-193.1 55.1-199.8 3.8-21.8 5.2-70 2.6-94.2-3.4-31.2-30.898-91.7-32.698-95s-39.003-68-46.502-88.5c-7.498-20.5-8.8-43.5-7.1-57.1.8-6.6 1.4-8.1 4.2-11 3.7-3.8 8.2-5.1 13.1-3.6 73.302 24.2 101 25.7 125.6 28.2 47.702 7 144.702-1 213.7-60.5 74.002-74.5 143.2-164.7 141.2-163.9-.9.3-36.398 18.4-42.198 18.4-6 2-13.9 1.2-17-2-3-3.1-4-9-1-14 0-8 143.198-159.9 174.098-180.2 24.902-19.8 105-41 106.4-41.3 1.8-.4 31.9-40.1 32.4-40.8.5-.8-17.8-29.7-18.4-31.1-2.7-7.2.3-14.5 7.3-17.6 2.6-1.2 30.934-1.867 85-2 37.8-22.6 58.734-33.933 62.8-34 6.5 0 10.3 2.3 12.5 7.5 1.3 3.2-8.9 77.4-9.1 79-.4 3.2 30 23.6 31.2 25.4 3.2 4.7 3.1 11.3-.1 15.6-3.066 4-20.433 6.2-52.1 6.6-16.266 22.4-24.3 33.833-24.1 34.3.2.6 35.5 56.3 43.1 71.1 42.6 85.2 62.934 129.733 61 133.6-2.2 4.1-7.1 6.9-12.4 6.9-4.7 0-47.1-28.9-47.7-29.3-.6-.3 21.102 80.3 40 94.8 18.899 14.5 21.6 13.9 40.1 14 58.002-4.5 103.6-44.7 117.6-61.1 4.1-4.8 106.3-125.6 109.1-127 6-3.1 13.9-.6 17.8 5.8 1.267 2.133 1.934 39.067 2 110.8 33.6-2.4 53.8-4.2 60.6-5.4 9.9-1.8 88.7-26.3 90.9-27.1 25.3-8.5 33-9.7 38.2-5.9 4.7 3.5 5.5 6 4.8 15.4-.5 7.7-.001 9-21.5 71.5s-44.3 85.1-53 96.5c-6.6 8.7-36.2 37.9-53 52.4-13 11.2-59.501 46.6-118 62.1s-108.501 6.3-138.5-.6C1208 640 1159.1 609.4 1161 613c.7 1.2 5.597 50.2 53.298 110.1 47.702 59.9 160.5 139.2 167.2 143.9 28.2 19.9 30.9 22.4 31 29.5 0 3.8-4.1 10-8 12-2.1 1.1-77.5 5.6-85.2 6.2-7.4.6-7.798 9-7.298 10.3 1.3 3.3 74 127 103.898 165s111.2 120.9 112.5 122.8c9.6 14.1 4.2 32.5-14.8 50.1-25.5 23.4-69.2 46.2-108.6 56.5-14.1 3.7-91.847 4.621-92.7 5-1.5.7-1.8 2.2-1.7 10 0 5 3.402 41.6-25.6 56.7s-105.5 22.8-114.5 23.5c-10.2.7-5.9-2.8-46.5 37.3-106.1 104.8-146 143.8-148.8 145.4-3.7 2-11 2.2-15.2.3zm181.5-197.9c-.8-.2-68.2-17-110-46-39.6-27.5-42-30.1-34.9-38.2 5.4-6.1 5.912-2.994 28.3 9.3 64.102 35.2 69.102 44.2 133.6 56.8 64.499 12.6 120.502-5.6 123.4-21.1 10.102-7.5-3.2-146.9.5-150.6 5.9-5.9 15.4-2.3 16.6 6.4.2 1.533 2.1 29.767 5.7 84.7h31.7c46.7 0 57.2-1.3 84.8-10.6 22.8-7.6 73.2-42 78.5-47.2 9.4-9.1 9.6-9.5 9.1-13-.3-2-36.3-43.2-68.3-76.7-40.2-42-47.498-51.5-70.2-83S1264 909 1285 900c14-6 46.233-8.5 96.698-7.5-42-27.2-69.9-45.7-83.7-55.5-14-10-106.998-100-123.998-127s-37.002-106.7-41.102-118c-4.3-12-7.4-22.1-7.4-24.4 0-5.4 4.3-9.6 10-9.6 3.9 0 4.8.6 16.3 11.8 32 30.8 49.5 42.3 75.7 49.5 34.5 9.6 62.7 13.7 95.8 14 14.9.2 20.4-.2 27.2-1.6 35.7-7.7 76.2-23.7 99.5-39.2 16.9-11.2 64.9-57 85.8-81.7 27.2-32.1 28.8-35.3 47.6-94.3 10-31.4 12.5-40.4 11.8-41.2-.7-.7-76.3 23.1-85 25.7-21.9 6.7-94.5 13.5-100.6 8.4s-1.598-97.4-6.8-97.4c-17.798 1-85.801 123.2-163.8 156.1C1161 501 1121 474 1108.898 436.2c-12.101-37.8-41.701-126.4-34.8-128.3 6.902-1.9 48 28.9 48.2 28.7.3-.4-4.9-11.5-20.5-43.6-33.6-68.9-43.2-86-59.5-105.2-5.7-6.6-44.6-52.6-45.5-52.9-2.2-.7-8.4.6-42.8 9.1-50.2 12.4-77.6 20.9-95 29.4-41.3 20.1-94.7 68.6-148.9 135-5.8 7.1-10.4 13.1-10.1 13.4.2.2 74.1-37.5 79.4-32.4 3.6 3.5 4.5 6.7 2.9 10.5-.7 1.5-31.8 36-69.2 76.5-37.3 40.5-76.802 91.386-85.098 98.6-23 20-34 54-131.502 97.8-52.9 16.6-100.5 23.6-139.5 20.3-32.1-2.7-122.1-24.8-122.4-24.6-5.598.5 1.7 18.4 4 27.4 4.2 16.8 13.1 35.2 42.7 88.6 24.4 44.1 30.1 56.7 35.1 78.5 7.9 33.9 7.602 87 2 132-2.398 20-67.398 211-58.7 212.2 8.302 3.8 45.8-4.4 53.9-9 18.7-10.8 50.402-31.2 129.9-124.2 49.502-59 129-239.3 148.5-278.7 18.3-37.1 21.8-43.4 24.4-44.7 1.6-.9 3.8-1.6 4.8-1.6 3.1 0 7.9 3.6 9.3 6.9 1.5 3.8-150.4 310.1-162.5 341.1-10.9 27.8-21.498 52.5-19.998 54 1.3 1.3 124.798-82 126.598-82 1.7 0 4.2 1.2 6.4 3.1 4.8 4.2 4.9 8.8.3 13.3-1.8 1.7-56 36.7-56.8 38.6-.5 1.4-21.1 92.8-67 247-6.1 20.6-24.498 102-18.4 107.5 11.902 6.5 172.6 4.7 173 4.2.2-.2-52.9-66.9-53.2-68.2-.7-2.8 1.7-7.8 4.8-9.9 3.1-2.2 7.8-1.9 10.9.7 1.4 1.2 107.4 130.9 108.6 131.3 3 .8 47.9-15.6 69.4-25.3 10.7-4.9 26.6-16.3 67.7-48.5 18.6-14.5 20.6-15.3 26.1-9.7 2.4 2.4 3.1 3.9 3.1 6.9 0 3.5-.6 4.4-5.7 8.9-17.6 15.4-83.3 61.4-83.3 61.8C760.59 1431.344 961 1577 966 1579s5 1 7-1 169.498-178 168.498-178.3z"/><path d="M852.298 253c-3.8-3-5.3-7.3-3.8-11 1.2-2.8 50.3-47.9 55.4-50.7 5-2.9 10.7-.6 13.2 5.3 1.5 3.6.9 6.3-2.3 10-2.4 2.8-49.1 44.5-52.3 46.7-3.2 2.3-7.2 2.1-10.2-.3zm173.4-9.4c-3.3-2.9-20.1-34.2-20.9-39.2.202-14.4 11-11.5 14.9-8.4 4.9 3.8 21.8 35 21.8 40.1-.1 8.2-9.5 12.7-15.8 7.5zm127.3 67.2c-3.7-2-7.2-5.9-8.8-9.6-.8-2-34.513-89.005-43.9-109.7-9.298-20.5 3.712-26.27 10.1-25.5 16.602 2 61.1 123.2 61.1 132.2s-11.2 16.7-18.5 12.6zm4.9-160.9c-3.3-6.5 1.102-28.9 28.1-12.3 3.4 2.09 31.8 22.5 33 26.5 1.3 4.1 1.002 16.9-13.2 16.9-14.798-6-34.798-17-47.9-31.1zm-366-24.3c-4-3.9-3.9-14.3-.6-17.6 4.5-4.6 69.6-20.6 73.1-21.5 8.4-2.2 12.2-1.4 17.2 3.6 3.5 3.5 5.402 13.9.402 17.9s-69.102 20.2-72.602 21.1c-2 .5-14.398 2.9-17.5-3.5zm361-53C1140 71 1138 54 1153 48s85.598-13 88.198-13c9.802 0 13.3 9.1 13.3 13.3 0 4.1-.5 5.3-3.7 8.8-4.2 4.4-92.674 16.148-97.9 15.5zM854.798 48c-9.1-5.5-9.2-16.7-.3-22.8 3.2-2.1 4.2-2.2 24.2-2.2 22.9 0 24.8.4 28.7 5.9 2.9 4 2.9 11.8 0 15.5-4.1 5.2-6.1 5.6-28.6 5.6-18.9 0-21.1-.2-24-2z"/></g><path d="M947 542c-.5-.7-.569-38.083-1.669-46.383-5.1-38-5.19-29.281 3.71-97.081 3.6-28 5.213-33.677 12.413-49.377 10.1-21.6 13.065-26.367 14.165-26.367 2.5 0 7.98 19.108 10.28 33.708.8 5.5 2.2 14.1 3.1 19.1 1.2 7.2 1.5 17.9 1.5 48.6 0 42.5-2.514 42.52-5.5 65.5C982.751 506.984 948.8 544.3 947 542zm-135-7c-8.215-7.101-23.225-25.07-19.229-49.049 3.22-19.292 3.705-30.575 12.475-54.554 16.984-46.105 30.282-68.175 80.68-125.942 28.862-33.134 35.88-29.77 36.656-28.68.333.545-16.522 90.498-20.582 117.225-.888 3.27-20.158 35.913-24.82 43.216C875.404 440.049 820.215 542.1 812 535z" fill="#ccf"/><path d="M1006.833 114.981c-4.286-2.895-12.857-2.663-29.188.811-7.297 1.506-13.783 2.317-14.362 1.738-.58-.58 17.258-25.482 18.416-27.683 3.359-6.602 1.853-12.625-5.791-24.091-3.591-5.444-6.14-10.309-5.56-10.888.309-.309 25.366-.85 75.17-1.621 30.887-17.992 46.485-26.833 46.794-26.524.463.579-7.505 53.42-5.822 59.62 4.897 18.05 21.202 26.171 22.666 30.376.643 1.846-32.828-3.243-36.419 0-1.505 1.39-30.81 39.728-31.388 39.96-.464.231-32.779-40.54-34.516-41.698z" fill="#fefe00"/><path d="M841.893 563.263c-3.524-.84-34.739-21.094-34.739-28.025 0-1.26 8.334-17.497 11.965-23.903C838 482 853 467 879.026 429.638c6.086-10.395 17.974-29.638 24.88-72.14 14.096-62.796 17.135-83.035 19.377-86.605 6.233 17.763 9.278 33.12 9.135 46.071-.64 61.01-1.068 75.606-2.456 83.482-.747 4.305-36.2 114.984-43.568 126.745-5.02 8.086-16.125 23.207-19.008 25.938-2.136 2.1-17.378 12.024-25.493 10.134zm105.51-18.516c-.528-.577 27.73-46.359 30.767-54.2 5.83-23.547 8.715-26.87 8.715-79.11.115-36.437-11.038-99.852-10.378-99.506 1.584.807 35.466 79.325 35.598 80.824 1.32 11.186 7.263 59.044 7.791 64.695 1.188 11.993-6.123 60.36-8.896 65.55-5.15 9.456-23.851 20.478-30.454 22.67-4.621 1.499-32.747-.347-33.143-.923z" fill="#69f"/><path d="M843.255 1046.326a4941.155 4941.155 0 0 0-14.842-26.026c-8.173-14.304-14.841-26.564-14.841-27.102 0-.43 8.424-8.496 25.273-24.198L908 962l46 21 25.41 21.383c11.543 15.63 16.741 23.947 15.594 24.951C992.53 1031.27 884.952 1093 884 1093c-.43-.108-33-33-40.745-46.674z" fill="#f66"/><path d="m986.574 997.422-72.51-40.187c-49.75 2.588-75.53 4.16-77.341 4.718-2.612.732-29.362 22.95-30.407 21.174-1.044-2.09-9.187-30.921-24.427-86.494V786.818c0-60.393-.314-117.414 0-117.728.313-.418 9.45-2.431 14.779 1.748 21.315 16.718 37.15 38.137 52.719 38.242 13.06 0 167.491-88.604 169.476-87.35.94.522 3.866 101.142 12.748 156.833 2.716 17.867 59.139 199.673 57.571 201.345-2.507 2.612-72.095 45.765-73.767 45.765-.209 0-9.822-9.417-28.84-28.251z" fill="#f33"/><path d="M1096.598 1156.4c-2.6-2.1-3.1-3.3-3.1-6.9 0-2.4 39.8-185 39.6-185.3-.3-.2-212.7 128.8-231.6 136.1-23.4 8.9-31.1 8.1-42.5-4.5-14-15.5-48.9-67.2-59.3-88-7.2-14.3-24.501-58-29.6-101.9-5.098-43.9-3-254.1 3.4-257.4 6-3.1 8.4-2.1 19.6 8.4 21.6 20.4 40.7 32.8 54.4 35.3 20.3 3.8 60.2-13.6 102.5-44.8 17.7-13 42.002-25.4 65.7-48.1 5.535-4.867 9.801-11.1 12.8-18.7-10-10.6-15-16.4-15-17.4 0-3.1 4.3-7.2 7.6-7.2 3 0 4.1.9 27.7 23.2 17.6 16.7 18.4 18.3 12.6 23.2-7.398 2.6-15.5-5.2-16.1-4.6-1.6 1.6-5.7 18.2-7.2 29.2-4.9 35.1-2.6 70.4 9.4 147 6.502 44 4.502 54 13.4 93.3 5.7 15 39.7 91.1 41.5 93 .5.5 9.1-5.3 19.1-12.8s19.7-14.5 21.4-15.6c4.7-2.9 8.3-2.4 12.2 1.5 2.8 2.8 3.4 4.2 3.4 7.5 0 4.4-45.4 210.1-47 213.2-2.9 5.3-10 6.4-14.9 2.3zm-104.1-128.5c0-1-3.618-13.7-16.5-22.4-28.868-19.5-39.396-26.78-67-34-27.604-7.22-45.998-5.5-63 0-17.001 5.5-27.5 22.5-27.5 23.7 0 1.9 23.3 43.6 27.7 49.5C850.098 1050 868 1079 885 1083s107.498-54 107.498-55.1zm93-55.4c0-.5-38.498-74.5-45.2-104.5-8.298-37-6-51.1-12.3-91-10.8-68-13.6-100.3-11.5-132.4.6-9.3.9-17.1.6-17.3-1.2-1.2-36.9 21.6-53.6 34.2-20.2 15.3-98.8 53.2-114.8 51s-60.2-33.5-60.6-33.5c-.3 0-.6 48.4-.6 107.5-.2 71 1.334 113.433 4.6 127.3 4.9 20.8 15 58.7 16.3 61 .6 1.1 12.934-17.152 28.4-22.3 18.034-6.002 58.704-2.926 77.2 0s62.002 27.5 74.3 38.9c12.299 11.4 22.4 26.5 23.4 26.6.9 0 73.8-44.5 73.8-45.5zm-249.3-398.6c-9.3-1.4-13.5-2.8-17-5.9-23.198-16-62.7-90.9-62.7-92.5 0-3.1 4.4-7.5 7.5-7.5 2.6 0 6 3.6 12.5 13.3 2.4 3.6 4.8 6.3 5.1 5.9.4-.4 1.5-5.4 2.4-11.2 3.1-20.3 11.8-48.2 24-77.9 11.1-27 29-51.8 77.9-107.6 8.1-9.3 43-41.5 46.5-44 7.4-5.3 11-5.8 14-1.9 3.2 4.1 2.7 6.8-2.1 10.9-2.4 2-5.6 4.4-7.1 5.3-3.3 2-3.3 2 1.8 15 3.134 8.067 4.634 31.967 4.5 71.7 22.667-48.533 34.767-73.6 36.3-75.2 2.6-2.9 5.7-2.9 9.2-.2 2.2 1.8 2.6 2.8 2.2 5.8-.2 2-1.5 6-2.8 8.9-1.9 4.4-2.1 5.7-1.2 8 12.3 29.6 34 85.9 35.8 92.7 2.8 10.8 6.766 33.62 8.1 61 .902 18.5-1.098 33.5-.2 41 .102 3.5 3.102-.5 6.4-3.7 5.3-5.2 7.7-6.8 9.9-6.8 4.6 0 7.3 2.5 7.3 6.8 0 3.5-1 4.7-17.9 21.2-13.8 13.4-18.6 18.8-20.6 23-8.3 16.8-16.7 26.8-24.1 28.9-2.2.6-12.8 1.1-24.2 1.1-22.3 0-24.9-.5-29.4-5.8-3.1-3.7-3.3-5-8.8-48.2-2.3-17.9-4.4-33.2-4.7-34s-14.5 34.4-26.8 59.5c-15.4 31.3-22.3 40-33.5 42.4-5.8 1.3-19.8 1.3-28.3 0zm21.6-17.3c5.6-2 6.9-3.6 17.7-19.8 9.4-14.2 20.4-39.3 22.3-44.3 6-15.5 9.6-26.7 17.2-53 3.7-12.9 7.6-34.6 7.4-41-.1-2.2.4-21.1 1.1-42 1.7-51.8.7-72.8-3.6-74.2-1.7-.6-39.8 43.4-60.5 69.7-20.7 26.4-28.3 39.7-39.2 69-11.8 31.7-17.337 44.96-20.4 79.1-.798 8.9-1.801 5.1 14.2 32 15.002 26.9 38.2 26.5 43.8 24.5zm126-16C994 540 1002.9 527.1 1005 520c3-6 7.298-36.7 7.398-51.7.1-14.1-5.6-61.1-6.4-66.3-1.8-10.6-9.6-34.7-15.7-48.5-2.2-4.9-12.3-28.4-12.8-28.9-.9-.9-9.9 17-18.1 36.1-4.3 9.9-4.9 13.4-12 68.8-2.5 19.5-3 26.2-2.6 36 .6 14.1 3.202 71.5 9.8 74 7.402 3.5 25.4 2.4 29.2 1.1z" fill="#000"/><path d="M850.998 524.4c-7.9-4.1-10.4-9.6-8.5-18.2s15.8-49.2 18.1-52.9C872 433 891 447 888.798 460.9c-.1 5.6-15.3 52.3-18.7 57.3-4.7 7.1-12.6 9.6-19.1 6.2zM958 510c-3-19-.36-49.184.17-52.159.584-3.218 3.446-6.694 6.409-7.714 4.837-1.666 10.613 1.552 12.41 6.969 1.24 3.798 1.906 48.824 1.011 52.904-1 15-20 12-20 0z" fill="#000"/><path d="M166.75 1742c0 12.667-1.583 25.5-4.75 38.5s-8.5 28.083-16 45.25L126.5 1871l-4.75 2.5L79 1753.75 34.75 1872l-5.25 1.5L.25 1731l11.25-3.5 23 113.25 45.25-118.25 44.75 125.25 15.25-35.25c5.667-13 9.792-25.375 12.375-37.125S156 1752.583 156 1742.25c0-3.5-.042-6.083-.125-7.75s-.292-3.333-.625-5h10.5c.667 3.5 1 7.667 1 12.5zM281 1870h-11v-108.5c0-8.667-.75-14.75-2.25-18.25s-4.083-5.25-7.75-5.25-7.125 1.958-10.375 5.875-7.542 11.625-12.875 23.125l-48.5 104.75-5.5 3.75v-96.75c0-30.333 7.083-55.583 21.25-75.75 12.833-18.333 32.667-33.833 59.5-46.5l4 9.25c-27 14.667-45.917 29.917-56.75 45.75-11.667 17-17.5 39.333-17.5 67v58.75L230 1756.5c4.833-10.5 10.25-18.25 16.25-23.25 4.833-4 9.917-6 15.25-6 6.667 0 11.583 3.042 14.75 9.125s4.75 16.375 4.75 30.875zm127.75-145.75L408.5 1848c0 29.333-7.333 51.75-22 67.25-13.833 14.667-32.583 22-56.25 22-4.5 0-8.5-.333-12-1l3.25-10.25 8.5.5c19.667 0 35.417-5.917 47.25-17.75 13.333-13.167 20-32.083 20-56.75v-89.25l-38.75 88.75c-3.5 8.167-7.75 13.833-12.75 17-3.833 2.5-8.5 3.75-14 3.75-6.667 0-11.833-2.75-15.5-8.25-4.167-6.167-6.25-15.333-6.25-27.5v-107h10.75V1836c0 9.333.917 15.917 2.75 19.75s4.833 5.75 9 5.75c3.333 0 6.208-.917 8.625-2.75s4.792-5.333 7.125-10.5L403.5 1727zm117.5 34.5c0 3.667-.375 7-1.125 10s-2.125 6.333-4.125 10l-9-4.75c.833-1.833 1.667-4.208 2.5-7.125s1.25-5.708 1.25-8.375c0-5.833-2.042-10.708-6.125-14.625S500.417 1738 494.25 1738c-12.833 0-25.5 8.25-38 24.75-13.167 17.333-19.75 36.167-19.75 56.5 0 12.333 3.542 22.375 10.625 30.125S463.167 1861 474 1861c6.667 0 14.083-1.417 22.25-4.25s15.167-6.333 21-10.5l5.25 8.75c-11.667 6.5-20.167 10.75-25.5 12.75-7.5 2.833-15.417 4.25-23.75 4.25-14.167 0-25.667-4.667-34.5-14s-13.25-21.833-13.25-37.5c0-22.167 7.208-43.25 21.625-63.25s30.208-30 47.375-30c8.667 0 16.125 3.042 22.375 9.125s9.375 13.542 9.375 22.375zM642.5 1870h-11v-108.5c0-8.667-.75-14.75-2.25-18.25s-4.083-5.25-7.75-5.25-7.125 1.958-10.375 5.875-7.542 11.625-12.875 23.125l-48.5 104.75-5.5 3.75v-96.75c0-30.333 7.083-55.583 21.25-75.75 12.833-18.333 32.667-33.833 59.5-46.5l4 9.25c-27 14.667-45.917 29.917-56.75 45.75-11.667 17-17.5 39.333-17.5 67v58.75l36.75-80.75c4.833-10.5 10.25-18.25 16.25-23.25 4.833-4 9.917-6 15.25-6 6.667 0 11.583 3.042 14.75 9.125s4.75 16.375 4.75 30.875zm102.25-107-10.75 4.5.25-8.25c0-8.333-.625-13.958-1.875-16.875S729.167 1738 726.5 1738c-4.833 0-9 5.833-12.5 17.5L677.25 1874l-5.5 2.25V1729.5h11v89.75l21-66.5c3.167-10.167 7-17.167 11.5-21 3.167-2.833 7.167-4.25 12-4.25 5.833 0 10.208 2.583 13.125 7.75s4.375 11.917 4.375 20.25zm24.25-50.5h-11.25v-47.75H769zm0 157.5h-11.25v-140.5H769zm105-58.25c0 17.167-6.5 31.333-19.5 42.5-14 12-32.583 18-55.75 18-4.833 0-8.167-.083-10-.25s-4.667-.75-8.5-1.75l3.5-10.25c1.667.333 3.708.625 6.125.875s5.375.375 8.875.375c19 0 34.667-4.667 47-14 11.5-8.667 17.25-18.75 17.25-30.25 0-15.833-11.667-25.167-35-28s-35-10.083-35-21.75c0-9.667 4.333-18.25 13-25.75 10.833-9.333 25.833-14 45-14 2.833 0 5.5.042 8 .125s5.417.375 8.75.875L865 1739c-3.833-.5-6-.75-6.5-.75-1.667-.167-3.833-.25-6.5-.25-14.333 0-26.083 2.833-35.25 8.5-8.333 5.167-12.5 11.083-12.5 17.75 0 7.167 11.625 12.75 34.875 16.75S874 1795.25 874 1811.75zm84.5-82.25-2.25 11h-43V1870H902v-129.5h-27.25l2.25-11h25v-43h11.25v43zm160.25 140.5h-10.5v-117.25c0-9.833-2.25-14.75-6.75-14.75-2.667 0-5.125 1.583-7.375 4.75s-4.042 6.583-5.375 10.25l-45.5 118.75-6 3.75v-119.75c0-7.667-.5-12.542-1.5-14.625S1033 1738 1030.5 1738c-3.333 0-6.917 3.583-10.75 10.75-1.667 3-3.333 6.833-5 11.5l-42.25 111.5-5.5 3.75v-146h11v98.75l25-67.5c5-13.5 9.917-22.667 14.75-27.5 4-4 8.917-6 14.75-6 5.667 0 9.708 2.917 12.125 8.75s3.625 14.833 3.625 27v66l23.5-62.25c6.167-16.5 11.5-27.417 16-32.75 3.833-4.667 8.917-7 15.25-7 5.833 0 9.917 2.917 12.25 8.75s3.5 16 3.5 30.5zM1267 1728.25l-3.25 9.5-12.75-.25c-30.833 0-56.167 8.333-76 25-19.167 16.167-28.75 36.333-28.75 60.5 0 12 3.167 21.5 9.5 28.5 5.833 6.5 13.5 9.75 23 9.75 9.667 0 17.833-4.167 24.5-12.5 5.667-7 11.958-20.125 18.875-39.375s14.042-39.208 21.375-59.875l9.25-6.5v127h-11v-86.75c-9 33-18.833 56.417-29.5 70.25-9.5 12.333-21.083 18.5-34.75 18.5-12.167 0-22.208-4.583-30.125-13.75s-11.875-21.583-11.875-37.25c0-23.833 9.417-44.833 28.25-63 21.333-20.5 49.75-30.75 85.25-30.75 4 0 7.542.083 10.625.25s5.542.417 7.375.75zm90.75 83.5c0 17.167-6.5 31.333-19.5 42.5-14 12-32.583 18-55.75 18-4.833 0-8.167-.083-10-.25s-4.667-.75-8.5-1.75l3.5-10.25c1.667.333 3.708.625 6.125.875s5.375.375 8.875.375c19 0 34.667-4.667 47-14 11.5-8.667 17.25-18.75 17.25-30.25 0-15.833-11.667-25.167-35-28s-35-10.083-35-21.75c0-9.667 4.333-18.25 13-25.75 10.833-9.333 25.833-14 45-14 2.833 0 5.5.042 8 .125s5.417.375 8.75.875l-2.75 10.5c-3.833-.5-6-.75-6.5-.75-1.667-.167-3.833-.25-6.5-.25-14.333 0-26.083 2.833-35.25 8.5-8.333 5.167-12.5 11.083-12.5 17.75 0 7.167 11.625 12.75 34.875 16.75s34.875 14.25 34.875 30.75zm72.5-91.75c0 12.667-6.083 24.917-18.25 36.75-12.167 11.833-18.25 26.25-18.25 43.25h-11.25c0-17.5 8.167-35.25 24.5-53.25 7.667-8.5 11.5-17.5 11.5-27 0-15-12.833-32.917-38.5-53.75l7.5-8.75c14.833 13.833 22.333 20.833 22.5 21 7 7.167 12.125 13.833 15.375 20s4.875 13.417 4.875 21.75zm-36.5 150h-11.25v-58h11.25zM1538 1758.75c0 3.667-.375 7-1.125 10s-2.125 6.333-4.125 10l-9-4.75c.833-1.833 1.667-4.208 2.5-7.125s1.25-5.708 1.25-8.375c0-5.833-2.042-10.708-6.125-14.625S1512.167 1738 1506 1738c-12.833 0-25.5 8.25-38 24.75-13.167 17.333-19.75 36.167-19.75 56.5 0 12.333 3.542 22.375 10.625 30.125S1474.917 1861 1485.75 1861c6.667 0 14.083-1.417 22.25-4.25s15.167-6.333 21-10.5l5.25 8.75c-11.667 6.5-20.167 10.75-25.5 12.75-7.5 2.833-15.417 4.25-23.75 4.25-14.167 0-25.667-4.667-34.5-14s-13.25-21.833-13.25-37.5c0-22.167 7.208-43.25 21.625-63.25s30.208-30 47.375-30c8.667 0 16.125 3.042 22.375 9.125s9.375 13.542 9.375 22.375zm124.5 33.25c0 22.5-7.667 41.667-23 57.5-14.5 15-30.75 22.5-48.75 22.5-13.333 0-24.458-4.958-33.375-14.875S1544 1834.167 1544 1818c0-20.5 5.75-38.25 17.25-53.25 9.333-12.167 21.583-21.75 36.75-28.75 12.333-5.667 23.667-8.5 34-8.5l-1.5 4.75c-24.167 7.167-42.75 18.25-55.75 33.25s-19.5 32.167-19.5 51.5c0 13.333 3.292 24.042 9.875 32.125s15.042 12.125 25.375 12.125c14.667 0 28.25-6.583 40.75-19.75 13.333-14.167 20-31 20-50.5 0-11-3-19.5-9-25.5s-14.167-9-24.5-9l-5.75.25 4.25-10.25 6-.5c11.167 0 20.667 4.25 28.5 12.75s11.75 19.583 11.75 33.25zm170 78H1822v-117.25c0-9.833-2.25-14.75-6.75-14.75-2.667 0-5.125 1.583-7.375 4.75s-4.042 6.583-5.375 10.25l-45.5 118.75-6 3.75v-119.75c0-7.667-.5-12.542-1.5-14.625s-2.75-3.125-5.25-3.125c-3.333 0-6.917 3.583-10.75 10.75-1.667 3-3.333 6.833-5 11.5l-42.25 111.5-5.5 3.75v-146h11v98.75l25-67.5c5-13.5 9.917-22.667 14.75-27.5 4-4 8.917-6 14.75-6 5.667 0 9.708 2.917 12.125 8.75s3.625 14.833 3.625 27v66l23.5-62.25c6.167-16.5 11.5-27.417 16-32.75 3.833-4.667 8.917-7 15.25-7 5.833 0 9.917 2.917 12.25 8.75s3.5 16 3.5 30.5z" fill="#fff"/></g></svg>