<svg width="13" height="16" xmlns="http://www.w3.org/2000/svg"><path d="M6.7 0C2.3 0 0 2.8 0 5.9c0 1.4.8 3.2 2.1 3.8.2.1.3 0 .3-.1s.2-.8.3-1.1c0-.1 0-.2-.1-.3-.4-.5-.8-1.4-.8-2.2 0-2.1 1.7-4.2 4.6-4.2 2.5 0 4.2 1.6 4.2 3.9 0 2.6-1.4 4.4-3.2 4.4-1 0-1.7-.8-1.5-1.8.3-1.2.8-2.4.8-3.2 0-.7-.4-1.4-1.3-1.4-1 0-1.8 1-1.8 2.4 0 .9.3 1.4.3 1.4s-1 4.1-1.2 4.8c-.3 1.3 0 3.4.1 3.5 0 .1.1.1.2 0s1.3-1.9 1.7-3.1c.1-.5.6-2.3.6-2.3.3.6 1.3 1.1 2.3 1.1 3.1 0 5.3-2.7 5.3-6C13 2.4 10.2 0 6.7 0" fill="#FFF" fill-rule="nonzero"/></svg>