<svg width="34" height="152" xmlns="http://www.w3.org/2000/svg"><path d="M.02 140.7c0-3.188.796-6.259 2.39-9.212h5.625c-2.047 3.39-3.07 6.399-3.07 9.024 0 1.593.308 2.84.926 3.738.617.898 1.441 1.348 2.472 1.348 1.235 0 2.375-.836 3.422-2.508.313-.469 1.188-2.274 2.625-5.414 1.266-2.688 2.672-4.625 4.219-5.813 1.547-1.187 3.406-1.781 5.578-1.781 2.813 0 5.082 1.012 6.809 3.035 1.726 2.024 2.59 4.645 2.59 7.863 0 2.094-.231 3.895-.692 5.403-.46 1.508-1.254 3.199-2.379 5.074h-6.234c2.906-3.5 4.36-6.797 4.36-9.89 0-1.547-.337-2.797-1.009-3.75-.672-.954-1.562-1.43-2.672-1.43-1.515 0-2.75.828-3.703 2.484-.75 1.375-1.648 3.149-2.695 5.32-1.172 2.579-2.539 4.504-4.102 5.778-1.562 1.273-3.375 1.91-5.437 1.91-2.75 0-4.941-1.024-6.574-3.07-1.633-2.047-2.45-4.75-2.45-8.11zm.421-22.477h13.782V101.23H.44v-6.328h32.743v6.328H19.355v16.993h13.829v6.328H.44v-6.328zm0-47.133l32.743-14.461v6.68l-7.97 3.398v14.555l7.97 3.164v6.633L.44 77.559v-6.47zm19.97 8.25V68.77L7.448 74.3l12.961 5.04zM.44 40.996c0-3.078.852-5.586 2.555-7.523 1.703-1.938 3.922-2.907 6.656-2.907 1.86 0 3.48.48 4.864 1.442 1.382.96 2.472 2.387 3.27 4.277a9.491 9.491 0 0 1 2.296-2.789c.969-.812 2.602-1.82 4.898-3.023 3.97-2 6.704-3.485 8.204-4.453v7.054c-.72.485-1.868 1.14-3.446 1.969-3.484 1.812-5.832 3.14-7.043 3.984-1.21.844-2.07 1.657-2.578 2.438-.508.781-.762 1.68-.762 2.695v2.297h13.829v6.328H.44V40.996zm13.97 1.43c0-1.656-.415-2.957-1.243-3.903-.828-.945-1.961-1.418-3.398-1.418-1.5 0-2.622.47-3.364 1.407s-1.113 2.273-1.113 4.008v3.937h9.117v-4.031zM.44.707h4.946v14.836h8.601V1.34h4.946v14.203h9.304V.379h4.946V21.87H.44V.707z" fill="#FFF" fill-rule="evenodd"/></svg>