<svg width="16" height="16" xmlns="http://www.w3.org/2000/svg"><path d="M8 0C3.6 0 0 3.6 0 8c0 1.7.6 3.4 1.5 4.7l-1 3 3.1-1C4.9 15.5 6.4 16 8 16c4.4 0 8-3.6 8-8s-3.6-8-8-8zm4.7 11.3c-.2.5-1 1-1.6 1.1-.4.1-1 .2-2.8-.6-2.4-1-3.9-3.4-4-3.5-.1-.2-.9-1.3-.9-2.4 0-1.1.6-1.7.8-1.9.2-.2.5-.3.8-.3h.3c.2 0 .4 0 .5.4.2.5.7 1.6.7 1.7.1.1.1.3 0 .4-.1.2-.1.2-.3.4-.1.1-.2.2-.3.4-.1.1-.2.3-.1.5s.6 1 1.3 1.6c.9.8 1.6 1 1.9 1.2.2.1.4.1.6-.1.2-.2.4-.5.6-.8.2-.2.4-.3.6-.2.2.1 1.4.6 1.6.8.2.1.4.2.4.3 0 0 0 .5-.1 1z" fill="#FFF" fill-rule="nonzero"/></svg>